Coordinates
version=1
nRows=11
nColumns=40
inDegrees=yes

Units are S.I. units (second, meters, Newtons, ...)
Angles are in degrees.

endheader
time	pelvis_tilt	pelvis_list	pelvis_rotation	pelvis_tx	pelvis_ty	pelvis_tz	hip_flexion_r	hip_adduction_r	hip_rotation_r	knee_angle_r	knee_angle_r_beta	ankle_angle_r	subtalar_angle_r	mtp_angle_r	hip_flexion_l	hip_adduction_l	hip_rotation_l	knee_angle_l	knee_angle_l_beta	ankle_angle_l	subtalar_angle_l	mtp_angle_l	lumbar_extension	lumbar_bending	lumbar_rotation	arm_flex_r	arm_add_r	arm_rot_r	elbow_flex_r	pro_sup_r	wrist_flex_r	wrist_dev_r	arm_flex_l	arm_add_l	arm_rot_l	elbow_flex_l	pro_sup_l	wrist_flex_l	wrist_dev_l
     30.67750000	     -3.84732587	     -4.70545249	      3.97438530	      1.04220681	      0.92024749	      0.43714476	      5.44920935	     -1.63334275	    -12.09560124	     30.69548857	     30.69548857	     17.33036918	     -2.68957677	     -6.30807932	     26.54836622	     -5.81357114	     -1.34937506	     28.39778290	     28.39778290	      8.68873868	    -14.60220362	      3.53246327	     -9.11878350	      2.21367799	      4.10982357	     19.40068535	    -14.43259146	     12.43484873	     71.71260763	     44.85093371	      0.00000000	      0.00000000	     -0.59200083	     -9.46547956	    -15.00734489	     31.65464363	     45.95517492	      0.00000000	      0.00000000
     30.69028571	     -3.99511871	     -4.67487479	      3.64357099	      1.04191152	      0.92058994	      0.43523450	      7.23301751	     -2.11607987	    -11.28000277	     33.94289608	     33.94289608	     14.73682326	     -5.10015372	    -10.98410520	     26.23298936	     -5.86488033	     -1.94675026	     28.31895475	     28.31895475	      9.10403290	    -14.15651204	      3.18898714	     -8.97754278	      2.02049786	      3.32814911	     19.48411271	    -13.96189838	     13.90380880	     67.83497816	     44.95908243	      0.00000000	      0.00000000	     -1.17009659	     -9.96089252	    -13.53796447	     33.27579775	     45.79738723	      0.00000000	      0.00000000
     30.70307143	     -4.00884268	     -4.47099823	      3.30657693	      1.04151565	      0.92106197	      0.43323398	      9.15532169	     -2.90494699	    -10.66004933	     37.82921207	     37.82921207	     13.48783060	     -6.23290921	    -11.41076651	     25.71337451	     -5.71651821	     -2.57340248	     28.16989200	     28.16989200	      9.44536031	    -13.88657890	      2.94839843	     -9.13379759	      1.70410325	      3.36104905	     18.28382363	    -14.22267002	     14.16004178	     66.91522809	     44.97786501	      0.00000000	      0.00000000	     -0.58082326	    -10.14253059	    -13.48533211	     33.74061068	     45.80579306	      0.00000000	      0.00000000
     30.71585714	     -4.04991597	     -4.29730325	      2.99432400	      1.04101155	      0.92140527	      0.43135965	     11.19500125	     -3.57700053	     -9.92334311	     41.71965202	     41.71965202	     12.01806027	     -7.57296619	    -11.65714829	     25.24018685	     -5.58747927	     -3.14067941	     28.01787923	     28.01787923	      9.79507763	    -13.58144027	      2.64837443	     -9.22855658	      1.41348772	      3.34677516	     17.06008009	    -14.43381525	     14.36985229	     65.68856681	     45.00842711	      0.00000000	      0.00000000	      0.00694399	    -10.33511491	    -13.39230615	     34.25350658	     45.80851895	      0.00000000	      0.00000000
     30.72864286	     -4.11898848	     -4.28731734	      2.67720016	      1.04047239	      0.92175885	      0.42979855	     13.25911221	     -3.84749273	     -8.94199860	     45.34555089	     45.34555089	     10.18006469	     -9.53088330	    -11.78629670	     24.80262283	     -5.67220926	     -3.75295402	     27.81623956	     27.81623956	      9.88881880	    -13.21265083	      1.67160305	     -9.18712612	      1.27523344	      2.91398405	     16.66486939	    -13.87403674	     14.30731232	     61.70985753	     45.15828256	      0.00000000	      0.00000000	     -0.11169448	    -10.88757722	    -12.07356513	     35.75109110	     45.69906593	      0.00000000	      0.00000000
     30.74142857	     -4.04569581	     -4.09567592	      2.44318027	      1.03993314	      0.92226263	      0.42788138	     15.15706555	     -4.45060188	     -8.31096232	     48.88419296	     48.88419296	      8.57943583	    -10.58614643	    -11.53826787	     24.20231876	     -5.46506206	     -4.18349758	     27.62527023	     27.62527023	     10.20841434	    -13.02757829	      1.47566567	     -9.42712934	      1.04461776	      2.67659435	     15.37400692	    -14.11177478	     14.46189947	     60.69082943	     45.18220839	      0.00000000	      0.00000000	      0.49402655	    -11.12640859	    -12.00251073	     36.18901427	     45.70653331	      0.00000000	      0.00000000
     30.75421429	     -4.00661417	     -3.99591955	      2.21591970	      1.03938684	      0.92279092	      0.42612929	     17.05674619	     -4.81513662	     -7.58523293	     52.12169012	     52.12169012	      7.02433203	    -11.76870169	    -10.89569309	     23.64400347	     -5.35584789	     -4.59611364	     27.40702585	     27.40702585	     10.45436142	    -12.83920419	      1.27182616	     -9.56148745	      0.91086070	      2.55177687	     14.04193920	    -14.37801727	     14.50595898	     59.20633290	     45.22644967	      0.00000000	      0.00000000	      1.14362021	    -11.36866025	    -11.86703146	     36.71695031	     45.70764109	      0.00000000	      0.00000000
     30.76700000	     -3.88886641	     -4.08122062	      2.03483092	      1.03891378	      0.92357993	      0.42448860	     18.85411958	     -4.88527633	     -6.92238854	     55.18515520	     55.18515520	      6.79786938	    -12.11849475	     -6.64043370	     22.98619942	     -5.43344415	     -4.88065799	     27.11184556	     27.11184556	     10.50813644	    -12.66095832	      0.42323168	     -9.67953068	      0.98550215	      2.00887135	     13.82318866	    -13.43995930	     13.08494626	     54.02114456	     45.46390590	      0.00000000	      0.00000000	      1.24387877	    -11.99738728	    -10.06146763	     37.86063303	     45.56724337	      0.00000000	      0.00000000
     30.77978571	     -3.75917694	     -4.10028368	      1.87303961	      1.03846519	      0.92447155	      0.42270160	     20.43494567	     -5.04729436	     -6.40644312	     57.57276328	     57.57276328	      5.62162158	    -12.90957777	     -5.88869909	     22.29470048	     -5.38396769	     -5.08769430	     26.79539020	     26.79539020	     10.74251984	    -12.58457269	      0.33237540	     -9.90588534	      1.05573576	      1.86534786	     12.36363550	    -13.88732088	     13.04171439	     52.73712262	     45.50198961	      0.00000000	      0.00000000	      1.98263082	    -12.18761081	     -9.90420557	     38.39260707	     45.57427427	      0.00000000	      0.00000000
     30.79257143	     -3.64152934	     -4.12781365	      1.69067340	      1.03805380	      0.92547890	      0.42105046	     22.02792324	     -5.15106739	     -5.90363636	     59.74176804	     59.74176804	      5.59053266	    -13.00323891	     -2.63061789	     21.55803078	     -5.35258641	     -5.32272221	     26.37158968	     26.37158968	     10.80304202	    -12.47009838	     -0.11074821	    -10.03905448	      1.15473745	      1.39034051	     11.74248718	    -13.29710859	     11.30284934	     48.91454256	     45.69788863	      0.00000000	      0.00000000	      2.48998199	    -12.77371811	     -8.38767380	     38.76763170	     45.48668243	      0.00000000	      0.00000000
     30.80535714	     -3.42508160	     -4.27594380	      1.56700035	      1.03767926	      0.92673613	      0.41938057	     23.24515599	     -5.11306328	     -5.58314338	     61.12190946	     61.12190946	      4.81435114	    -13.47242370	     -2.19581357	     20.75646058	     -5.41624139	     -5.39990477	     25.99604964	     25.99604964	     11.04693468	    -12.42626053	     -0.14348882	    -10.34959135	      1.39638991	      1.40771887	     10.19495481	    -13.92681068	     11.17218874	     47.55174882	     45.74134133	      0.00000000	      0.00000000	      3.36088517	    -12.85378137	     -8.29095440	     39.37013301	     45.50203901	      0.00000000	      0.00000000
